<svg width="30" height="30" viewBox="0 0 30 30" fill="none" xmlns="http://www.w3.org/2000/svg">
<path d="M9.89968 22.0834L14.9997 16.9834L20.0997 22.0834L22.083 20.1L16.983 15L22.083 9.90004L20.0997 7.91671L14.9997 13.0167L9.89968 7.91671L7.91634 9.90004L13.0163 15L7.91634 20.1L9.89968 22.0834ZM14.9997 29.1667C13.04 29.1667 11.1983 28.7948 9.47468 28.0511C7.75106 27.3073 6.25176 26.298 4.97676 25.023C3.70176 23.748 2.69238 22.2487 1.94863 20.525C1.20488 18.8014 0.833008 16.9598 0.833008 15C0.833008 13.0403 1.20488 11.1987 1.94863 9.47504C2.69238 7.75143 3.70176 6.25212 4.97676 4.97712C6.25176 3.70212 7.75106 2.69275 9.47468 1.949C11.1983 1.20525 13.04 0.833374 14.9997 0.833374C16.9594 0.833374 18.8011 1.20525 20.5247 1.949C22.2483 2.69275 23.7476 3.70212 25.0226 4.97712C26.2976 6.25212 27.307 7.75143 28.0507 9.47504C28.7945 11.1987 29.1663 13.0403 29.1663 15C29.1663 16.9598 28.7945 18.8014 28.0507 20.525C27.307 22.2487 26.2976 23.748 25.0226 25.023C23.7476 26.298 22.2483 27.3073 20.5247 28.0511C18.8011 28.7948 16.9594 29.1667 14.9997 29.1667ZM14.9997 26.3334C18.1636 26.3334 20.8434 25.2355 23.0393 23.0396C25.2351 20.8438 26.333 18.1639 26.333 15C26.333 11.8362 25.2351 9.15629 23.0393 6.96046C20.8434 4.76462 18.1636 3.66671 14.9997 3.66671C11.8358 3.66671 9.15593 4.76462 6.96009 6.96046C4.76426 9.15629 3.66634 11.8362 3.66634 15C3.66634 18.1639 4.76426 20.8438 6.96009 23.0396C9.15593 25.2355 11.8358 26.3334 14.9997 26.3334Z" fill="#1C1B1F"/>
</svg>
