<svg width="17" height="18" viewBox="0 0 17 18" fill="none" xmlns="http://www.w3.org/2000/svg">
<path d="M1.66667 17.0762C1.20833 17.0762 0.815972 16.913 0.489583 16.5866C0.163194 16.2602 0 15.8678 0 15.4095V3.74284C0 3.28451 0.163194 2.89214 0.489583 2.56576C0.815972 2.23937 1.20833 2.07617 1.66667 2.07617H9.10417L7.4375 3.74284H1.66667V15.4095H13.3333V9.61784L15 7.95117V15.4095C15 15.8678 14.8368 16.2602 14.5104 16.5866C14.184 16.913 13.7917 17.0762 13.3333 17.0762H1.66667ZM5 12.0762V8.53451L12.6458 0.888672C12.8125 0.722005 13 0.597005 13.2083 0.513672C13.4167 0.430339 13.625 0.388672 13.8333 0.388672C14.0556 0.388672 14.2674 0.430339 14.4688 0.513672C14.6701 0.597005 14.8542 0.722005 15.0208 0.888672L16.1875 2.07617C16.3403 2.24284 16.4583 2.42687 16.5417 2.62826C16.625 2.82964 16.6667 3.03451 16.6667 3.24284C16.6667 3.45117 16.6285 3.65603 16.5521 3.85742C16.4757 4.05881 16.3542 4.24284 16.1875 4.40951L8.54167 12.0762H5ZM6.66667 10.4095H7.83333L12.6667 5.57617L12.0833 4.99284L11.4792 4.40951L6.66667 9.22201V10.4095Z" fill="white"/>
</svg>
