<svg width="21" height="16" viewBox="0 0 21 16" fill="none" xmlns="http://www.w3.org/2000/svg">
<path d="M2.75 16C2.2 16 1.72917 15.8042 1.3375 15.4125C0.945833 15.0208 0.75 14.55 0.75 14V2C0.75 1.45 0.945833 0.979167 1.3375 0.5875C1.72917 0.195833 2.2 0 2.75 0H18.75C19.3 0 19.7708 0.195833 20.1625 0.5875C20.5542 0.979167 20.75 1.45 20.75 2V14C20.75 14.55 20.5542 15.0208 20.1625 15.4125C19.7708 15.8042 19.3 16 18.75 16H2.75ZM10.75 9L2.75 4V14H18.75V4L10.75 9ZM10.75 7L18.75 2H2.75L10.75 7ZM2.75 4V2V14V4Z" fill="#1C1B1F"/>
</svg>
