<svg width="19" height="18" viewBox="0 0 19 18" fill="none" xmlns="http://www.w3.org/2000/svg">
<path d="M17.7 18C15.6167 18 13.5583 17.5458 11.525 16.6375C9.49167 15.7292 7.64167 14.4417 5.975 12.775C4.30833 11.1083 3.02083 9.25833 2.1125 7.225C1.20417 5.19167 0.75 3.13333 0.75 1.05C0.75 0.75 0.85 0.5 1.05 0.3C1.25 0.1 1.5 0 1.8 0H5.85C6.08333 0 6.29167 0.0791667 6.475 0.2375C6.65833 0.395833 6.76667 0.583333 6.8 0.8L7.45 4.3C7.48333 4.56667 7.475 4.79167 7.425 4.975C7.375 5.15833 7.28333 5.31667 7.15 5.45L4.725 7.9C5.05833 8.51667 5.45417 9.1125 5.9125 9.6875C6.37083 10.2625 6.875 10.8167 7.425 11.35C7.94167 11.8667 8.48333 12.3458 9.05 12.7875C9.61667 13.2292 10.2167 13.6333 10.85 14L13.2 11.65C13.35 11.5 13.5458 11.3875 13.7875 11.3125C14.0292 11.2375 14.2667 11.2167 14.5 11.25L17.95 11.95C18.1833 12.0167 18.375 12.1375 18.525 12.3125C18.675 12.4875 18.75 12.6833 18.75 12.9V16.95C18.75 17.25 18.65 17.5 18.45 17.7C18.25 17.9 18 18 17.7 18ZM3.775 6L5.425 4.35L5 2H2.775C2.85833 2.68333 2.975 3.35833 3.125 4.025C3.275 4.69167 3.49167 5.35 3.775 6ZM12.725 14.95C13.375 15.2333 14.0375 15.4583 14.7125 15.625C15.3875 15.7917 16.0667 15.9 16.75 15.95V13.75L14.4 13.275L12.725 14.95Z" fill="#1C1B1F"/>
</svg>
