<svg width="19" height="18" viewBox="0 0 19 18" fill="none" xmlns="http://www.w3.org/2000/svg">
<path d="M16.25 9C16.25 7.05 15.5708 5.39583 14.2125 4.0375C12.8542 2.67917 11.2 2 9.25 2V0C10.5 0 11.6708 0.2375 12.7625 0.7125C13.8542 1.1875 14.8042 1.82917 15.6125 2.6375C16.4208 3.44583 17.0625 4.39583 17.5375 5.4875C18.0125 6.57917 18.25 7.75 18.25 9H16.25ZM12.25 9C12.25 8.16667 11.9583 7.45833 11.375 6.875C10.7917 6.29167 10.0833 6 9.25 6V4C10.6333 4 11.8125 4.4875 12.7875 5.4625C13.7625 6.4375 14.25 7.61667 14.25 9H12.25ZM17.2 18C15.1167 18 13.0583 17.5458 11.025 16.6375C8.99167 15.7292 7.14167 14.4417 5.475 12.775C3.80833 11.1083 2.52083 9.25833 1.6125 7.225C0.704167 5.19167 0.25 3.13333 0.25 1.05C0.25 0.75 0.35 0.5 0.55 0.3C0.75 0.1 1 0 1.3 0H5.35C5.58333 0 5.79167 0.0791667 5.975 0.2375C6.15833 0.395833 6.26667 0.583333 6.3 0.8L6.95 4.3C6.98333 4.56667 6.975 4.79167 6.925 4.975C6.875 5.15833 6.78333 5.31667 6.65 5.45L4.225 7.9C4.55833 8.51667 4.95417 9.1125 5.4125 9.6875C5.87083 10.2625 6.375 10.8167 6.925 11.35C7.44167 11.8667 7.98333 12.3458 8.55 12.7875C9.11667 13.2292 9.71667 13.6333 10.35 14L12.7 11.65C12.85 11.5 13.0458 11.3875 13.2875 11.3125C13.5292 11.2375 13.7667 11.2167 14 11.25L17.45 11.95C17.6833 12.0167 17.875 12.1375 18.025 12.3125C18.175 12.4875 18.25 12.6833 18.25 12.9V16.95C18.25 17.25 18.15 17.5 17.95 17.7C17.75 17.9 17.5 18 17.2 18ZM3.275 6L4.925 4.35L4.5 2H2.275C2.35833 2.68333 2.475 3.35833 2.625 4.025C2.775 4.69167 2.99167 5.35 3.275 6ZM12.225 14.95C12.875 15.2333 13.5375 15.4583 14.2125 15.625C14.8875 15.7917 15.5667 15.9 16.25 15.95V13.75L13.9 13.275L12.225 14.95Z" fill="white"/>
</svg>
