<svg width="106" height="49" viewBox="0 0 106 49" fill="none" xmlns="http://www.w3.org/2000/svg">
<path d="M0 6.43922C1.2126 18.5652 9.7008 18.06 13.7933 16.2916V29.7818C13.7933 31.146 16.0669 32.3586 20.311 32.8133C38.5 32.9649 36.0748 18.2621 35.0138 14.7759C41.2284 12.5023 40.7737 6.74242 40.3189 6.74242C36.6811 8.1066 31.0729 8.40975 30.1634 8.40975C29.5571 8.40975 30.4666 6.2877 31.2244 4.92352C31.9823 3.55935 32.8918 1.74045 31.9823 1.89202C25.9193 2.0436 24.5551 6.74242 24.252 7.80345C23.7973 8.40975 21.5236 7.80345 20.311 7.80345C19.7047 6.894 23.7973 0.376273 22.7362 0.0731029C18.0374 -0.684772 14.0965 4.62035 14.0965 8.10655C9.85237 9.31915 0 5.68135 0 6.43922Z" fill="#F5F5F5"/>
<path d="M40.6221 18.5653C48.019 16.0188 49.8682 18.4137 49.8682 19.9294C40.1674 20.3842 39.6477 22.2031 38.9548 23.4157C38.3485 24.4767 37.7191 28.2661 39.4095 29.6302C46.3213 35.2082 53.6575 31.4491 56.0827 29.6302C56.2343 28.0134 56.3859 23.4157 55.7796 17.959C54.2638 10.6834 43.0473 12.6538 40.6221 13.7149C38.1969 14.7759 39.5611 18.5653 40.6221 18.5653Z" fill="#F5F5F5"/>
<path d="M66.5414 15.2306C65.6926 12.3204 61.9436 13.0075 60.1753 13.7149V30.085C60.539 32.874 64.5709 32.4596 66.5414 31.9039V15.2306Z" fill="#F5F5F5"/>
<path d="M66.5414 4.31722C61.8123 2.13454 60.3268 8.35922 60.1753 11.7444C62.1457 9.77392 64.7225 10.9865 66.5414 10.0771C68.3603 9.16762 68.9666 5.52982 66.5414 4.31722Z" fill="#F5F5F5"/>
<path d="M77.758 31.9039V18.5653C79.1727 18.2116 82.3658 17.5042 83.821 17.5042C84.5788 15.6853 84.4273 12.8054 81.6989 12.8054C74.4233 12.5629 71.695 15.1296 71.2402 16.4432V30.085C71.8465 32.7527 75.838 32.4091 77.758 31.9039Z" fill="#F5F5F5"/>
<path d="M93.9765 16.4432C92.7639 11.4716 88.8229 12.5023 86.7009 14.1696C86.3977 17.959 91.5513 30.085 93.5218 30.9944C89.4292 40.3921 76.3938 38.7247 63.3583 35.2385C50.3229 32.3586 35.317 39.0279 27.5866 39.9373C19.8563 40.8468 13.7933 35.9964 12.7323 36.148C11.6713 36.2995 13.7933 44.7877 21.0689 47.8192C33.1949 52.2149 41.5315 43.1204 46.0788 40.3921C53.9607 35.6629 61.9942 38.8763 72.756 41.4531C83.5178 44.0299 89.7324 43.1204 93.5218 40.3921C104.738 31.4491 106.254 15.8369 105.951 14.1696C105.648 12.5023 100.494 12.0475 100.039 13.7149C100.191 17.2011 97.7659 23.062 96.5533 26.2956C96.1996 25.083 95.1891 21.4149 93.9765 16.4432Z" fill="#F5F5F5"/>
<path d="M20.4656 27.0614L20.458 13.4197C22.8873 13.2603 28.6472 12.6539 28.6472 20.8423C28.6472 27.0614 23.0427 27.6158 20.4656 27.0614Z" fill="#4695B8"/>
<path d="M49.8713 27.3483L49.8697 24.3168C49.1118 24.3172 44.3717 24.022 44.5625 26.2957C44.7278 28.2661 48.2043 27.8544 49.8713 27.3483Z" fill="#4695B8"/>
</svg>
