<svg width="23" height="16" viewBox="0 0 23 16" fill="none" xmlns="http://www.w3.org/2000/svg">
<path d="M17.05 8.00024L13.5 4.45024L14.925 3.05024L17.05 5.17524L21.3 0.925244L22.7 2.35024L17.05 8.00024ZM8.5 8.00024C7.4 8.00024 6.45833 7.60858 5.675 6.82524C4.89167 6.04191 4.5 5.10024 4.5 4.00024C4.5 2.90024 4.89167 1.95858 5.675 1.17524C6.45833 0.391911 7.4 0.000244141 8.5 0.000244141C9.6 0.000244141 10.5417 0.391911 11.325 1.17524C12.1083 1.95858 12.5 2.90024 12.5 4.00024C12.5 5.10024 12.1083 6.04191 11.325 6.82524C10.5417 7.60858 9.6 8.00024 8.5 8.00024ZM0.5 16.0002V13.2002C0.5 12.6336 0.645833 12.1127 0.9375 11.6377C1.22917 11.1627 1.61667 10.8002 2.1 10.5502C3.13333 10.0336 4.18333 9.64608 5.25 9.38774C6.31667 9.12941 7.4 9.00024 8.5 9.00024C9.6 9.00024 10.6833 9.12941 11.75 9.38774C12.8167 9.64608 13.8667 10.0336 14.9 10.5502C15.3833 10.8002 15.7708 11.1627 16.0625 11.6377C16.3542 12.1127 16.5 12.6336 16.5 13.2002V16.0002H0.5ZM2.5 14.0002H14.5V13.2002C14.5 13.0169 14.4542 12.8502 14.3625 12.7002C14.2708 12.5502 14.15 12.4336 14 12.3502C13.1 11.9002 12.1917 11.5627 11.275 11.3377C10.3583 11.1127 9.43333 11.0002 8.5 11.0002C7.56667 11.0002 6.64167 11.1127 5.725 11.3377C4.80833 11.5627 3.9 11.9002 3 12.3502C2.85 12.4336 2.72917 12.5502 2.6375 12.7002C2.54583 12.8502 2.5 13.0169 2.5 13.2002V14.0002ZM8.5 6.00024C9.05 6.00024 9.52083 5.80441 9.9125 5.41274C10.3042 5.02108 10.5 4.55024 10.5 4.00024C10.5 3.45024 10.3042 2.97941 9.9125 2.58774C9.52083 2.19608 9.05 2.00024 8.5 2.00024C7.95 2.00024 7.47917 2.19608 7.0875 2.58774C6.69583 2.97941 6.5 3.45024 6.5 4.00024C6.5 4.55024 6.69583 5.02108 7.0875 5.41274C7.47917 5.80441 7.95 6.00024 8.5 6.00024Z" fill="white"/>
</svg>
