<svg width="22" height="21" viewBox="0 0 22 21" fill="none" xmlns="http://www.w3.org/2000/svg">
<path d="M14.0002 19H20.0002V18.175C19.5835 17.7917 19.1169 17.5 18.6002 17.3C18.0835 17.1 17.5502 17 17.0002 17C16.4502 17 15.9169 17.1 15.4002 17.3C14.8835 17.5 14.4169 17.7917 14.0002 18.175V19ZM17.0002 16C17.4169 16 17.771 15.8542 18.0627 15.5625C18.3544 15.2708 18.5002 14.9167 18.5002 14.5C18.5002 14.0833 18.3544 13.7292 18.0627 13.4375C17.771 13.1458 17.4169 13 17.0002 13C16.5835 13 16.2294 13.1458 15.9377 13.4375C15.646 13.7292 15.5002 14.0833 15.5002 14.5C15.5002 14.9167 15.646 15.2708 15.9377 15.5625C16.2294 15.8542 16.5835 16 17.0002 16ZM11.0502 6.5C10.0835 6.5 9.25853 6.84167 8.5752 7.525C7.89186 8.20833 7.5502 9.03333 7.5502 10C7.5502 10.8 7.7752 11.5 8.2252 12.1C8.6752 12.7 9.26686 13.1167 10.0002 13.35C10.0002 12.9667 10.0044 12.6 10.0127 12.25C10.021 11.9 10.0919 11.5833 10.2252 11.3C9.99186 11.1667 9.82103 10.9833 9.7127 10.75C9.60436 10.5167 9.5502 10.2667 9.5502 10C9.5502 9.58333 9.69603 9.22917 9.9877 8.9375C10.2794 8.64583 10.6335 8.5 11.0502 8.5C11.3002 8.5 11.5377 8.5625 11.7627 8.6875C11.9877 8.8125 12.1752 8.98333 12.3252 9.2C12.5085 9.11667 12.7002 9.05833 12.9002 9.025C13.1002 8.99167 13.3002 8.975 13.5002 8.975H14.4002C14.1835 8.25833 13.771 7.66667 13.1627 7.2C12.5544 6.73333 11.8502 6.5 11.0502 6.5ZM8.2502 20L7.8502 16.8C7.63353 16.7167 7.42936 16.6167 7.2377 16.5C7.04603 16.3833 6.85853 16.2583 6.6752 16.125L3.7002 17.375L0.950195 12.625L3.5252 10.675C3.50853 10.5583 3.5002 10.4458 3.5002 10.3375V9.6625C3.5002 9.55417 3.50853 9.44167 3.5252 9.325L0.950195 7.375L3.7002 2.625L6.6752 3.875C6.85853 3.74167 7.0502 3.61667 7.2502 3.5C7.4502 3.38333 7.6502 3.28333 7.8502 3.2L8.2502 0H13.7502L14.1502 3.2C14.3669 3.28333 14.571 3.38333 14.7627 3.5C14.9544 3.61667 15.1419 3.74167 15.3252 3.875L18.3002 2.625L21.0502 7.375L18.9252 9H16.4002C16.3835 8.91667 16.3669 8.82917 16.3502 8.7375C16.3335 8.64583 16.3085 8.55833 16.2752 8.475L18.4252 6.85L17.4502 5.15L14.9752 6.2C14.6085 5.81667 14.2044 5.49583 13.7627 5.2375C13.321 4.97917 12.8419 4.78333 12.3252 4.65L12.0002 2H10.0252L9.6752 4.65C9.15853 4.78333 8.67936 4.97917 8.2377 5.2375C7.79603 5.49583 7.39186 5.80833 7.0252 6.175L4.5502 5.15L3.5752 6.85L5.7252 8.45C5.64186 8.7 5.58353 8.95 5.5502 9.2C5.51686 9.45 5.5002 9.71667 5.5002 10C5.5002 10.2667 5.51686 10.525 5.5502 10.775C5.58353 11.025 5.64186 11.275 5.7252 11.525L3.5752 13.15L4.5502 14.85L7.0252 13.8C7.4252 14.2167 7.8752 14.5667 8.3752 14.85C8.8752 15.1333 9.41686 15.3167 10.0002 15.4V20H8.2502ZM13.5002 21C13.0835 21 12.7294 20.8542 12.4377 20.5625C12.146 20.2708 12.0002 19.9167 12.0002 19.5V12.5C12.0002 12.0833 12.146 11.7292 12.4377 11.4375C12.7294 11.1458 13.0835 11 13.5002 11H20.5002C20.9169 11 21.271 11.1458 21.5627 11.4375C21.8544 11.7292 22.0002 12.0833 22.0002 12.5V19.5C22.0002 19.9167 21.8544 20.2708 21.5627 20.5625C21.271 20.8542 20.9169 21 20.5002 21H13.5002Z" fill="white"/>
</svg>
